<svg width="0" height="0" class="hidden">
  <symbol fill="none" xmlns="http://www.w3.org/2000/svg" viewBox="0 0 38 38" id="dribbble">
    <path
      d="M18.05.037c-.122.014-.535.056-.918.094-2.952.294-5.992 1.418-8.519 3.147-1.439.986-3.073 2.499-4.105 3.802C.546 12.081-.627 18.63 1.359 24.668c2.292 6.97 8.358 11.914 15.709 12.803.989.12 3.148.134 4.054.028 3.727-.439 6.955-1.759 9.785-4 .854-.677 2.303-2.123 2.97-2.964 2.225-2.808 3.492-5.834 4.008-9.572.126-.913.105-3.635-.035-4.591-.439-2.994-1.417-5.6-2.986-7.952-1.891-2.836-4.342-4.982-7.409-6.487C25.507.977 23.789.457 21.597.159c-.694-.094-3.078-.177-3.547-.122M20.212 8.3c1.82.186 3.597.847 5.058 1.882.772.547 2.002 1.777 2.548 2.548 1.514 2.14 2.188 4.819 1.854 7.368-.655 4.996-4.708 8.844-9.707 9.217a10.61 10.61 0 0 1-6.792-1.876c-.772-.545-2.067-1.84-2.612-2.612-1.895-2.686-2.416-6.213-1.376-9.327 1.556-4.662 6.198-7.692 11.027-7.2m-2.447 1.747a6.096 6.096 0 0 0-.589.117c-.011.01.205.328.479.706a44.062 44.062 0 0 1 2.168 3.295c.345.577.637 1.076.648 1.109.048.143 1.668-.652 2.621-1.286.696-.463 1.988-1.659 1.988-1.84 0-.049-.135-.19-.301-.314a9.861 9.861 0 0 0-3.752-1.733c-.686-.152-2.517-.182-3.262-.054M14.82 11.09a9.085 9.085 0 0 0-4.299 5.203c-.109.34-.198.637-.198.659 0 .069 2.718-.031 3.61-.134 1.44-.165 3.267-.497 4.356-.791l.27-.072-.171-.299c-.904-1.577-2.965-4.826-3.061-4.825a6.215 6.215 0 0 0-.507.259m10.734 2.786c-1.001 1.013-2.084 1.786-3.453 2.466-.434.216-.798.401-.809.411-.011.009.076.256.195.546.118.291.264.664.325.828.106.288.117.297.311.253.111-.025 1.043-.043 2.07-.041 1.778.003 2.362.045 3.626.258l.238.04v-.378c0-.913-.334-2.199-.852-3.277-.262-.547-.969-1.682-1.047-1.682-.019 0-.292.259-.604.576m-6.966 3.577c-1.798.532-4.768.966-7.371 1.078l-1.039.045.04.685c.096 1.688.629 3.242 1.617 4.72.522.78.528.784.726.447.513-.876 2-2.518 3.051-3.369 1.064-.862 2.228-1.553 3.356-1.992.726-.282.98-.406.981-.479.001-.035-.132-.341-.295-.68-.338-.707-.288-.685-1.066-.455m4.41 2.312c-.222.029-.41.061-.418.071-.009.011.139.518.329 1.127.368 1.184 1.014 3.663 1.193 4.576.06.305.131.554.159.554.112 0 1.009-.772 1.496-1.287a8.91 8.91 0 0 0 1.497-2.17c.301-.604.695-1.71.769-2.16l.044-.266-.338-.096c-1.224-.347-3.47-.512-4.731-.349m-2.826.921c-1.261.487-2.696 1.312-3.668 2.112-.559.459-1.499 1.425-1.898 1.951-.41.539-.812 1.21-.768 1.281.09.145 1.174.803 1.689 1.025 2.067.891 4.29.981 6.624.27.287-.087.522-.168.522-.18 0-.011-.071-.374-.159-.805-.331-1.627-.97-3.821-1.533-5.261l-.239-.613-.57.22"
      fill="#404152" fill-rule="evenodd"></path>
  </symbol>
  <symbol fill="none" xmlns="http://www.w3.org/2000/svg" viewBox="0 0 24 24" id="drop-down">
    <path
      d="M4.24 8.035c-.301.099-.552.32-.662.583-.091.219-.085.571.014.787.06.132 1.035 1.128 3.994 4.081 4.203 4.194 3.993 4.003 4.414 4.003.421 0 .211.191 4.414-4.003 2.959-2.953 3.934-3.949 3.994-4.081.099-.216.105-.568.014-.787a1.112 1.112 0 0 0-.482-.51c-.211-.113-.656-.119-.86-.013-.077.04-1.702 1.632-3.61 3.539L12 15.1l-3.47-3.466C6.622 9.727 4.999 8.137 4.924 8.099c-.156-.077-.535-.113-.684-.064"
      fill-rule="evenodd" fill="#000"></path>
  </symbol>
  <symbol fill="none" xmlns="http://www.w3.org/2000/svg" viewBox="0 0 38 38" id="facebook">
    <path
      d="M17.607.037c-.122.014-.535.056-.919.095-4.231.421-8.393 2.461-11.41 5.59C2.392 8.715.699 12.283.117 16.593c-.108.8-.109 3.511-.003 4.37.402 3.233 1.572 6.279 3.388 8.817 2.494 3.485 6.028 6.005 10.051 7.167.787.227 1.932.483 2.161.483.116 0 .119-.171.119-6.618v-6.619h-4.75V18.81h4.624v-2.422c0-1.369.03-2.671.07-2.993.21-1.724.913-3.25 1.946-4.225.744-.702 1.524-1.154 2.534-1.47.984-.307 1.595-.37 3.208-.331 1.255.031 2.972.188 3.563.327l.142.033V12.336l-1.567.029c-1.376.026-1.619.046-1.983.164-.79.257-1.374.793-1.642 1.51-.207.554-.26 1.228-.241 3.061l.018 1.678 2.648.017c2.481.015 2.646.023 2.618.127-.017.06-.195 1.271-.395 2.69l-.364 2.58-2.19.016-2.19.017-.016 6.548-.017 6.548.36-.042c.5-.059 1.833-.382 2.554-.619 4.024-1.321 7.394-3.908 9.73-7.47 1.597-2.434 2.592-5.177 2.974-8.195.204-1.615.121-3.995-.199-5.7-1.064-5.677-4.707-10.567-9.825-13.19C25.411 1.064 23.481.463 21.185.158c-.72-.095-3.102-.176-3.578-.121"
      fill="#404152" fill-rule="evenodd"></path>
  </symbol>
  <symbol fill="none" xmlns="http://www.w3.org/2000/svg" viewBox="0 0 39 38" id="instagarm">
    <path
      d="M18.395.044a18.926 18.926 0 0 0-9.103 3.109C8.176 3.897 7.58 4.381 6.574 5.36c-2.125 2.07-3.648 4.441-4.612 7.185C1.223 14.646.902 16.56.905 18.85c.005 3.744 1.048 7.234 3.081 10.302 3.062 4.624 7.849 7.598 13.408 8.33 1.154.152 3.471.152 4.576 0 5.246-.721 9.641-3.281 12.761-7.433 3.856-5.13 4.799-11.903 2.502-17.959-1.913-5.041-6.044-9.106-11.129-10.949C23.695.268 20.846-.138 18.395.044m7.07 6.848a7.144 7.144 0 0 1 4.245 2.121c.816.84 1.315 1.636 1.665 2.655.382 1.112.366.832.392 6.857.017 3.783.002 5.729-.046 6.096-.394 2.982-2.499 5.323-5.494 6.109l-.649.171-5.395.024c-3.76.016-5.59.001-6.038-.051-2.965-.341-5.419-2.433-6.182-5.271-.277-1.032-.303-1.726-.276-7.273.025-4.938.032-5.194.16-5.752.699-3.051 3.114-5.3 6.096-5.679.656-.083 10.863-.09 11.522-.007M13.869 9.131c-.952.209-1.725.638-2.465 1.367-.861.846-1.326 1.795-1.464 2.988-.044.378-.06 2.438-.046 5.787.022 5.089.025 5.21.162 5.696.533 1.892 1.996 3.271 3.884 3.661.734.152 10.852.149 11.587-.003 1.832-.378 3.244-1.659 3.863-3.504l.152-.455.019-5.558c.021-6.357.037-6.14-.505-7.247-.53-1.083-1.274-1.837-2.308-2.338-.985-.477-.605-.451-6.858-.467-4.523-.012-5.7.002-6.021.073m13.05 2.213c1.16.815.485 2.686-.92 2.551-1.17-.112-1.724-1.583-.892-2.37.363-.344.552-.414 1.068-.394.397.016.508.048.744.213m-5.67 1.723c1.909.456 3.503 1.917 4.145 3.799.337.988.418 1.943.248 2.916-.622 3.569-4.166 5.75-7.604 4.679a6.022 6.022 0 0 1-3.401-2.751c-.806-1.436-.963-3.294-.414-4.876.387-1.115 1.252-2.243 2.231-2.91 1.385-.944 3.128-1.255 4.795-.857m-2.334 1.984c-.901.195-1.81.811-2.313 1.569a4.883 4.883 0 0 0-.436.921c-.375 1.088-.213 2.419.411 3.371.747 1.138 2.139 1.846 3.443 1.75a3.897 3.897 0 0 0 3.273-2.239c.568-1.19.457-2.632-.291-3.749-.888-1.328-2.494-1.966-4.087-1.623"
      fill="#404152" fill-rule="evenodd"></path>
  </symbol>
  <symbol fill="none" xmlns="http://www.w3.org/2000/svg" viewBox="0 0 47 46" id="linkedin">
    <path
      d="M21.724.086c-2.308.205-4.415.806-6.566 1.871-3.806 1.883-6.691 4.755-8.539 8.501-.889 1.801-1.394 3.343-1.718 5.248-.86 5.044.444 10.3 3.584 14.452.739.976 2.169 2.447 3.148 3.236 2.614 2.108 5.628 3.432 9.07 3.985 1.244.2 3.8.238 4.99.074 2.196-.301 4.1-.875 5.993-1.805 2.004-.985 3.521-2.068 5.053-3.606 3.552-3.565 5.483-8.236 5.483-13.264 0-2.079-.294-3.903-.949-5.892-1.777-5.402-5.946-9.71-11.358-11.737C27.48.237 24.443-.157 21.724.086m-3.511 9.617c1.017.464 1.458 1.536 1.084 2.636-.431 1.263-2.182 1.704-3.256.819-.849-.7-.925-2.18-.154-3.004.522-.558 1.623-.771 2.326-.451m12.057 5.485c1.26.451 1.917 1.214 2.331 2.711.167.604.175.78.202 4.798l.029 4.171h-3.605l-.026-3.623c-.023-3.236-.041-3.66-.164-3.974-.289-.736-.853-1.093-1.729-1.096-1.206-.004-1.833.488-2.075 1.628-.057.27-.088 1.599-.088 3.818v3.404h-3.682V15.353h3.525l.001.725.001.725.212-.275a4.185 4.185 0 0 1 2.145-1.447c.628-.177 2.301-.115 2.923.107m-11.078 6.001v5.836h-3.604V15.353h3.604v5.836"
      fill="#404152" fill-rule="evenodd"></path>
  </symbol>
  <symbol fill="none" xmlns="http://www.w3.org/2000/svg" viewBox="0 0 24 24" id="list-menu">
    <path
      d="M3.291 4.844c-.262.101-.545.373-.673.647a1.312 1.312 0 0 0 0 1.018c.131.282.41.546.685.649.22.082.234.082 8.697.082s8.477 0 8.697-.082c.275-.103.554-.367.685-.649a1.312 1.312 0 0 0 0-1.018 1.339 1.339 0 0 0-.685-.649c-.22-.082-.232-.082-8.709-.08-8.398.002-8.49.003-8.697.082m0 6c-.262.101-.545.373-.673.647a1.312 1.312 0 0 0 0 1.018c.131.282.41.546.685.649.22.082.234.082 8.697.082s8.477 0 8.697-.082c.275-.103.554-.367.685-.649.076-.163.097-.275.097-.509 0-.234-.021-.346-.097-.509a1.339 1.339 0 0 0-.685-.649c-.22-.082-.232-.082-8.709-.08-8.398.002-8.49.003-8.697.082m0 6c-.262.101-.545.373-.673.647a1.312 1.312 0 0 0 0 1.018c.131.282.41.546.685.649.22.082.234.082 8.697.082s8.477 0 8.697-.082c.275-.103.554-.367.685-.649.076-.163.097-.275.097-.509 0-.234-.021-.346-.097-.509a1.339 1.339 0 0 0-.685-.649c-.22-.082-.232-.082-8.709-.08-8.398.002-8.49.003-8.697.082"
      fill-rule="evenodd" fill="#000"></path>
  </symbol>
  <symbol fill="none" xmlns="http://www.w3.org/2000/svg" viewBox="0 0 24 24" id="secure">
    <path
      d="M4.04 2.817a1.793 1.793 0 0 0-1.221 1.211c-.049.161-.058.709-.058 3.452 0 3.2.016 3.748.139 4.571.303 2.035 1.167 4.026 2.428 5.593 1.323 1.644 3.27 3.084 5.312 3.927 1.046.431 1.393.477 2.015.264 1.265-.432 2.665-1.187 3.797-2.045 2.434-1.846 4.017-4.366 4.567-7.27.194-1.027.193-.989.21-4.72.012-2.7.004-3.583-.033-3.72a1.794 1.794 0 0 0-1.25-1.264c-.291-.078-15.628-.076-15.906.001M19.23 7.97c-.015 3.082-.019 3.232-.105 3.765-.222 1.39-.625 2.52-1.292 3.625-1.14 1.892-3.183 3.561-5.426 4.435l-.407.159-.39-.153a12.083 12.083 0 0 1-3.09-1.789c-.838-.671-1.757-1.685-2.259-2.493-.719-1.154-1.157-2.352-1.386-3.784-.086-.533-.09-.683-.105-3.765l-.015-3.21h14.49l-.015 3.21m-3.463.095c-.184.068-.15.037-3.425 3.163l-1.719 1.64-1.071-1.024c-.745-.712-1.129-1.051-1.261-1.113a.994.994 0 0 0-1.411.899c0 .201.091.464.21.605.201.239 2.962 2.849 3.076 2.908.148.076.493.117.685.081a.967.967 0 0 0 .3-.135c.088-.06 1.429-1.321 2.981-2.803 2.41-2.3 2.833-2.721 2.905-2.887a1.005 1.005 0 0 0-.414-1.259 1.14 1.14 0 0 0-.856-.075"
      fill-rule="evenodd" fill="#000"></path>
  </symbol>
  <symbol fill="none" xmlns="http://www.w3.org/2000/svg" viewBox="0 0 39 38" id="twitter">
    <path
      d="M18.395.037c-.125.015-.549.059-.942.098-3.272.327-6.479 1.618-9.325 3.752-.926.695-2.719 2.471-3.393 3.361-1.714 2.264-2.784 4.476-3.427 7.085-.376 1.527-.525 2.792-.527 4.461-.003 3.04.629 5.72 1.99 8.441.944 1.887 2.029 3.382 3.564 4.907 3.055 3.038 6.83 4.851 11.183 5.371.896.107 3.234.107 4.095 0 5.586-.694 10.306-3.53 13.447-8.081 3.283-4.756 4.169-10.892 2.371-16.421C35.172 6.068 29.216 1.127 21.938.159c-.695-.093-3.085-.174-3.543-.122M24.93 10.37c.262.068.614.25 1.085.561.384.253.731.5.772.55.168.203.906.032 2.025-.471.845-.38.86-.378.689.089-.169.458-.595 1.114-.992 1.527-.163.17-.261.308-.217.307.044-.001.45-.128.901-.281.776-.265.824-.273.894-.161.063.101.023.174-.27.493-.425.461-.989.988-1.255 1.171l-.2.138-.075 1.129c-.175 2.633-.74 4.598-1.842 6.404-1.646 2.698-4.719 4.59-8.277 5.096-.843.12-2.7.101-3.598-.036-1.126-.172-2.316-.476-2.996-.766-.785-.334-1.737-.812-1.79-.898-.028-.045.27-.067.896-.067.551 0 1.176-.041 1.515-.1 1.314-.228 2.884-.808 3.405-1.258l.228-.197-.24-.002c-.497-.006-1.785-.569-2.383-1.041-.431-.341-.938-1.027-1.122-1.515-.077-.207-.127-.389-.111-.406.016-.016.276.001.577.038.351.042.642.044.808.005.167-.039.206-.063.108-.067-.083-.004-.417-.144-.74-.311-1.33-.686-2.202-1.98-2.307-3.417-.043-.589-.047-.586.557-.34.487.197 1.18.366 1.18.287 0-.031-.23-.285-.511-.563-.819-.809-1.241-1.831-1.243-3.009-.001-.34.045-.72.118-.983.116-.42.424-1.031.519-1.031.027 0 .238.193.469.43 1.626 1.662 3.572 2.786 5.954 3.439.809.221 2.289.518 2.339.468.015-.015-.005-.25-.043-.523-.118-.855.097-1.896.555-2.684.102-.175.392-.525.645-.779.381-.381.59-.526 1.208-.832.553-.273.858-.384 1.17-.424.68-.086 1.181-.077 1.595.03"
      fill="#404152" fill-rule="evenodd"></path>
  </symbol>
  <symbol fill="none" xmlns="http://www.w3.org/2000/svg" viewBox="0 0 16 32" id="up-down">
    <path
      d="M7.65 4.408a1.426 1.426 0 0 0-.226.119c-.043.031-1.17 1.152-2.507 2.491C2.163 9.779 2.36 9.55 2.36 10.001c0 .232.007.268.087.429.102.209.27.373.482.472.13.062.186.071.404.071.447 0 .266.152 2.607-2.183L8 6.734l2.06 2.056c2.341 2.335 2.159 2.183 2.607 2.183.233 0 .269-.007.43-.086.209-.103.373-.27.472-.482.061-.131.071-.186.071-.406 0-.458.183-.246-2.632-3.055-2.764-2.757-2.553-2.574-2.981-2.59-.191-.007-.251.001-.377.054m-4.674 16.67a1.005 1.005 0 0 0-.576.594.764.764 0 0 0-.048.368c.02.415-.154.216 2.592 2.968C7.753 27.823 7.541 27.64 8 27.64c.459 0 .247.183 3.056-2.632 2.784-2.79 2.584-2.557 2.584-3.009 0-.232-.007-.268-.087-.429a1.004 1.004 0 0 0-.482-.472c-.13-.062-.186-.071-.404-.071-.447 0-.266-.152-2.607 2.183L8 25.266 5.94 23.21c-2.316-2.311-2.155-2.174-2.58-2.19-.193-.007-.25.002-.384.058"
      fill-rule="evenodd" fill="#000"></path>
  </symbol>
  <symbol fill="none" xmlns="http://www.w3.org/2000/svg" viewBox="0 0 24 24" id="arrowa">
    <path
      d="M8 5.037c-.458.14-.732.5-.732.963 0 .398.185.698.551.894l.161.086 3.799.011 3.798.011-5.223 5.229c-4.803 4.807-5.229 5.245-5.289 5.426A1.353 1.353 0 0 0 5 18c0 .405.309.826.69.939.258.077.362.077.633-.002.212-.062.335-.181 5.446-5.289l5.229-5.225.011 3.798.011 3.799.086.161c.196.366.496.551.894.551s.698-.185.894-.551l.086-.161.011-5.1c.01-4.659.005-5.115-.055-5.274a1.007 1.007 0 0 0-.516-.552l-.2-.093-5.06.003c-2.783.002-5.105.017-5.16.033"
      fill-rule="evenodd"></path>
  </symbol>

  <symbol xmlns="http://www.w3.org/2000/svg" viewBox="0 0 24 24" id="arrow">
    <path
      d="M19.642 6.269c-.194.069-.063-.057-6.58 6.342l-3.239 3.18-.747-.726a808.896 808.896 0 0 1-2.603-2.55c-1.206-1.185-1.919-1.857-2.035-1.917-.241-.125-.629-.128-.863-.007-.381.197-.556.487-.553.912.002.233.022.317.109.466.059.1.465.53.903.956.437.426 1.65 1.614 2.694 2.639 1.771 1.74 1.918 1.874 2.201 2.014a1.946 1.946 0 0 0 1.788-.002c.274-.135.405-.25 1.363-1.195.583-.575 2.617-2.572 4.52-4.437 4.456-4.368 4.26-4.168 4.338-4.429.12-.405.042-.728-.244-1.015a.988.988 0 0 0-1.052-.231"
      fill-rule="evenodd" />
  </symbol>

  <symbol fill="none" xmlns="http://www.w3.org/2000/svg" viewBox="0 0 24 24" id="arrow-down">
    <path
      d="M11.6 2.843a1.013 1.013 0 0 0-.494.457l-.086.16-.01 7.179-.011 7.179-2.569-2.567c-1.967-1.964-2.612-2.586-2.75-2.648-.25-.113-.646-.112-.861.001-.357.189-.546.486-.55.867-.004.47-.21.239 3.625 4.08 2.381 2.384 3.579 3.557 3.689 3.61.11.053.245.079.417.079a.948.948 0 0 0 .417-.079c.11-.053 1.308-1.226 3.689-3.61 3.835-3.841 3.629-3.61 3.625-4.08-.004-.381-.193-.678-.55-.867-.215-.113-.611-.114-.861-.001-.138.062-.783.684-2.75 2.648l-2.569 2.567-.011-7.179-.01-7.179-.086-.16A1.007 1.007 0 0 0 12 2.762c-.136 0-.289.031-.4.081"
      fill-rule="evenodd" fill="#000"></path>
  </symbol>
  <symbol fill="none" xmlns="http://www.w3.org/2000/svg" viewBox="0 0 24 24" id="arrow-left">
    <path
      d="M10.36 4.267c-.338.058-.317.039-3.914 3.627-2.432 2.426-3.558 3.576-3.609 3.686-.101.215-.101.625 0 .84.051.11 1.177 1.26 3.609 3.686 3.837 3.827 3.615 3.63 4.074 3.624.539-.007.913-.36.951-.899.037-.519.176-.353-2.705-3.241L6.182 13h7.099c4.767 0 7.148-.014 7.248-.042.395-.11.712-.535.71-.955a1.01 1.01 0 0 0-.539-.897l-.16-.086-7.179-.01-7.178-.011L8.766 8.41c2.881-2.888 2.742-2.722 2.705-3.241-.014-.202-.046-.315-.126-.441-.123-.195-.377-.393-.547-.425-.225-.044-.338-.053-.438-.036"
      fill-rule="evenodd" fill="#000"></path>
  </symbol>
  <symbol fill="none" xmlns="http://www.w3.org/2000/svg" viewBox="0 0 24 24" id="arrow-right">
    <path
      d="M13.28 4.284c-.231.045-.467.212-.619.437-.097.145-.122.23-.135.451-.029.52-.166.357 2.708 3.238l2.583 2.589-7.178.011-7.179.01-.16.086a1.011 1.011 0 0 0 0 1.788l.16.086 7.179.01 7.179.011-2.567 2.569c-1.964 1.967-2.586 2.612-2.648 2.75-.113.25-.112.646.001.861.189.357.486.546.867.55.47.004.239.21 4.08-3.625 2.384-2.381 3.557-3.579 3.61-3.689A.948.948 0 0 0 21.24 12a.948.948 0 0 0-.079-.417c-.053-.11-1.226-1.308-3.61-3.689-2.752-2.748-3.562-3.534-3.671-3.566a1.2 1.2 0 0 0-.6-.044"
      fill-rule="evenodd" fill="#000"></path>
  </symbol>
  <symbol fill="none" xmlns="http://www.w3.org/2000/svg" viewBox="0 0 24 24" id="arrow-up">
    <path
      d="M11.58 2.837c-.11.051-1.26 1.177-3.686 3.609-3.827 3.837-3.63 3.615-3.624 4.074.007.539.36.913.899.951.519.037.353.176 3.241-2.705l2.589-2.583.011 7.178.01 7.179.086.16c.182.336.516.538.897.539.42.002.845-.315.955-.71.028-.1.042-2.481.042-7.248V6.182l2.59 2.584c2.888 2.881 2.722 2.742 3.241 2.705.539-.038.892-.412.899-.951.006-.459.203-.237-3.624-4.074-2.426-2.432-3.576-3.558-3.686-3.609-.215-.101-.625-.101-.84 0"
      fill-rule="evenodd" fill="#000"></path>
  </symbol>
  <symbol fill="none" xmlns="http://www.w3.org/2000/svg" viewBox="0 0 24 24" id="close">
    <path
      d="M4.918 4.052a1.265 1.265 0 0 0-.812.706c-.123.272-.117.754.013 1.022.076.157.736.841 3.098 3.21L10.218 12l-3.001 3.01c-2.362 2.369-3.022 3.053-3.098 3.21-.131.269-.136.75-.012 1.025.12.264.345.495.607.624.31.152.767.157 1.066.012.157-.076.841-.736 3.21-3.098L12 13.782l3.01 3.001c2.369 2.362 3.053 3.022 3.21 3.098.299.145.756.14 1.066-.012.262-.129.487-.36.607-.624.124-.275.119-.756-.012-1.025-.076-.157-.736-.841-3.098-3.21L13.782 12l3.001-3.01c2.362-2.369 3.022-3.053 3.098-3.21.145-.299.14-.756-.012-1.066a1.326 1.326 0 0 0-.624-.607c-.275-.124-.756-.119-1.025.012-.157.076-.841.736-3.21 3.098L12 10.218 8.99 7.217C6.706 4.94 5.935 4.195 5.793 4.127a1.45 1.45 0 0 0-.875-.075"
      fill-rule="evenodd" fill="#000"></path>
  </symbol>
  <symbol xmlns="http://www.w3.org/2000/svg" viewBox="0 0 50 50" id="linkdin-icon">
    <path
      d="M41,4H9C6.24,4,4,6.24,4,9v32c0,2.76,2.24,5,5,5h32c2.76,0,5-2.24,5-5V9C46,6.24,43.76,4,41,4z M17,20v19h-6V20H17z M11,14.47c0-1.4,1.2-2.47,3-2.47s2.93,1.07,3,2.47c0,1.4-1.12,2.53-3,2.53C12.2,17,11,15.87,11,14.47z M39,39h-6c0,0,0-9.26,0-10 c0-2-1-4-3.5-4.04h-0.08C27,24.96,26,27.02,26,29c0,0.91,0,10,0,10h-6V20h6v2.56c0,0,1.93-2.56,5.81-2.56 c3.97,0,7.19,2.73,7.19,8.26V39z"
      fill="#404152">
    </path>
  </symbol>
  <symbol xmlns="http://www.w3.org/2000/svg" viewBox="0 0 50 50" id="github-icon">
    <path
      d="M17.791,46.836C18.502,46.53,19,45.823,19,45v-5.4c0-0.197,0.016-0.402,0.041-0.61C19.027,38.994,19.014,38.997,19,39 c0,0-3,0-3.6,0c-1.5,0-2.8-0.6-3.4-1.8c-0.7-1.3-1-3.5-2.8-4.7C8.9,32.3,9.1,32,9.7,32c0.6,0.1,1.9,0.9,2.7,2c0.9,1.1,1.8,2,3.4,2 c2.487,0,3.82-0.125,4.622-0.555C21.356,34.056,22.649,33,24,33v-0.025c-5.668-0.182-9.289-2.066-10.975-4.975 c-3.665,0.042-6.856,0.405-8.677,0.707c-0.058-0.327-0.108-0.656-0.151-0.987c1.797-0.296,4.843-0.647,8.345-0.714 c-0.112-0.276-0.209-0.559-0.291-0.849c-3.511-0.178-6.541-0.039-8.187,0.097c-0.02-0.332-0.047-0.663-0.051-0.999 c1.649-0.135,4.597-0.27,8.018-0.111c-0.079-0.5-0.13-1.011-0.13-1.543c0-1.7,0.6-3.5,1.7-5c-0.5-1.7-1.2-5.3,0.2-6.6 c2.7,0,4.6,1.3,5.5,2.1C21,13.4,22.9,13,25,13s4,0.4,5.6,1.1c0.9-0.8,2.8-2.1,5.5-2.1c1.5,1.4,0.7,5,0.2,6.6c1.1,1.5,1.7,3.2,1.6,5 c0,0.484-0.045,0.951-0.11,1.409c3.499-0.172,6.527-0.034,8.204,0.102c-0.002,0.337-0.033,0.666-0.051,0.999 c-1.671-0.138-4.775-0.28-8.359-0.089c-0.089,0.336-0.197,0.663-0.325,0.98c3.546,0.046,6.665,0.389,8.548,0.689 c-0.043,0.332-0.093,0.661-0.151,0.987c-1.912-0.306-5.171-0.664-8.879-0.682C35.112,30.873,31.557,32.75,26,32.969V33 c2.6,0,5,3.9,5,6.6V45c0,0.823,0.498,1.53,1.209,1.836C41.37,43.804,48,35.164,48,25C48,12.318,37.683,2,25,2S2,12.318,2,25 C2,35.164,8.63,43.804,17.791,46.836z"
      fill="#404152">
    </path>
  </symbol>
  <symbol xmlns="http://www.w3.org/2000/svg" viewBox="0 0 50 50" id="twitter-icon">
    <path
      d="M 50.0625 10.4375 C 48.214844 11.257813 46.234375 11.808594 44.152344 12.058594 C 46.277344 10.785156 47.910156 8.769531 48.675781 6.371094 C 46.691406 7.546875 44.484375 8.402344 42.144531 8.863281 C 40.269531 6.863281 37.597656 5.617188 34.640625 5.617188 C 28.960938 5.617188 24.355469 10.21875 24.355469 15.898438 C 24.355469 16.703125 24.449219 17.488281 24.625 18.242188 C 16.078125 17.8125 8.503906 13.71875 3.429688 7.496094 C 2.542969 9.019531 2.039063 10.785156 2.039063 12.667969 C 2.039063 16.234375 3.851563 19.382813 6.613281 21.230469 C 4.925781 21.175781 3.339844 20.710938 1.953125 19.941406 C 1.953125 19.984375 1.953125 20.027344 1.953125 20.070313 C 1.953125 25.054688 5.5 29.207031 10.199219 30.15625 C 9.339844 30.390625 8.429688 30.515625 7.492188 30.515625 C 6.828125 30.515625 6.183594 30.453125 5.554688 30.328125 C 6.867188 34.410156 10.664063 37.390625 15.160156 37.472656 C 11.644531 40.230469 7.210938 41.871094 2.390625 41.871094 C 1.558594 41.871094 0.742188 41.824219 -0.0585938 41.726563 C 4.488281 44.648438 9.894531 46.347656 15.703125 46.347656 C 34.617188 46.347656 44.960938 30.679688 44.960938 17.09375 C 44.960938 16.648438 44.949219 16.199219 44.933594 15.761719 C 46.941406 14.3125 48.683594 12.5 50.0625 10.4375 Z"
      fill="#404152">
    </path>
  </symbol>
  <symbol fill="none" xmlns="http://www.w3.org/2000/svg" viewBox="0 0 24 24" id="age">
    <path fill-rule="evenodd" clip-rule="evenodd"
      d="M3 5C2.44772 5 2 5.44771 2 6V18C2 18.5523 2.44772 19 3 19H21C21.5523 19 22 18.5523 22 18V6C22 5.44772 21.5523 5 21 5H3ZM0 6C0 4.34315 1.34314 3 3 3H21C22.6569 3 24 4.34315 24 6V18C24 19.6569 22.6569 21 21 21H3C1.34315 21 0 19.6569 0 18V6ZM6 10.5C6 9.67157 6.67157 9 7.5 9C8.32843 9 9 9.67157 9 10.5C9 11.3284 8.32843 12 7.5 12C6.67157 12 6 11.3284 6 10.5ZM10.1756 12.7565C10.69 12.1472 11 11.3598 11 10.5C11 8.567 9.433 7 7.5 7C5.567 7 4 8.567 4 10.5C4 11.3598 4.31002 12.1472 4.82438 12.7565C3.68235 13.4994 3 14.7069 3 16C3 16.5523 3.44772 17 4 17C4.55228 17 5 16.5523 5 16C5 15.1145 5.80048 14 7.5 14C9.19952 14 10 15.1145 10 16C10 16.5523 10.4477 17 11 17C11.5523 17 12 16.5523 12 16C12 14.7069 11.3177 13.4994 10.1756 12.7565ZM13 8C12.4477 8 12 8.44772 12 9C12 9.55228 12.4477 10 13 10H19C19.5523 10 20 9.55228 20 9C20 8.44772 19.5523 8 19 8H13ZM14 12C13.4477 12 13 12.4477 13 13C13 13.5523 13.4477 14 14 14H18C18.5523 14 19 13.5523 19 13C19 12.4477 18.5523 12 18 12H14Z"
      fill="#42b3a2"></path>
  </symbol>
  <symbol fill="none" xmlns="http://www.w3.org/2000/svg" viewBox="0 0 24 24" id="location">
    <path fill-rule="evenodd" clip-rule="evenodd"
      d="M5 9.5C5 6.09371 8.00993 3 12 3C15.9901 3 19 6.09371 19 9.5C19 11.6449 17.6877 14.0406 15.9606 16.2611C14.5957 18.016 13.0773 19.5329 12 20.5944C10.9227 19.5329 9.40427 18.016 8.03935 16.2611C6.31229 14.0406 5 11.6449 5 9.5ZM12 1C6.99007 1 3 4.90629 3 9.5C3 12.3551 4.68771 15.2094 6.46065 17.4889C7.99487 19.4615 9.7194 21.1574 10.7973 22.2173C10.9831 22.4001 11.1498 22.564 11.2929 22.7071C11.4804 22.8946 11.7348 23 12 23C12.2652 23 12.5196 22.8946 12.7071 22.7071C12.8502 22.564 13.0169 22.4001 13.2027 22.2174L13.2028 22.2173C14.2806 21.1573 16.0051 19.4615 17.5394 17.4889C19.3123 15.2094 21 12.3551 21 9.5C21 4.90629 17.0099 1 12 1ZM12 12.5C13.3807 12.5 14.5 11.3807 14.5 10C14.5 8.61929 13.3807 7.5 12 7.5C10.6193 7.5 9.5 8.61929 9.5 10C9.5 11.3807 10.6193 12.5 12 12.5Z"
      fill="#42b3a2"></path>
  </symbol>
  <symbol fill="none" xmlns="http://www.w3.org/2000/svg" viewBox="0 0 24 24" id="mail">
    <path fill-rule="evenodd" clip-rule="evenodd"
      d="M2.54433 5.16792C3.0468 4.46923 3.86451 4 4.8 4H19.2C20.1355 4 20.9532 4.46923 21.4557 5.16792C21.7993 5.64567 22 6.235 22 6.86667V17.1333C22 18.682 20.7804 20 19.2 20H4.8C3.21964 20 2 18.682 2 17.1333V6.86667C2 6.23499 2.20074 5.64567 2.54433 5.16792ZM4.9327 6L11.2598 12.9647C11.6566 13.4015 12.3434 13.4015 12.7402 12.9647L19.0673 6H4.9327ZM20 7.94766L14.2205 14.3096C13.0301 15.6199 10.9699 15.6199 9.77948 14.3096L4 7.94766V17.1333C4 17.6466 4.39214 18 4.8 18H19.2C19.6079 18 20 17.6466 20 17.1333V7.94766Z"
      fill="#42b3a2"></path>
  </symbol>
  <symbol fill="none" xmlns="http://www.w3.org/2000/svg" viewBox="0 0 24 24" id="person">
    <path fill-rule="evenodd" clip-rule="evenodd"
      d="M11.9511 5.00023C9.22161 5.02636 7.01518 7.23962 7.00008 9.97177C9.37173 9.36069 11.1149 7.50854 11.9511 5.00023ZM12 15C9.92508 15 8.14536 13.7361 7.3887 11.9362C10.6875 11.1335 12.9473 8.55435 13.928 5.38525C15.7323 6.13994 17 7.92192 17 10C17 12.7614 14.7614 15 12 15ZM18.9995 10.0812C18.9998 10.0542 19 10.0271 19 10C19 6.13401 15.866 3 12 3C8.13401 3 5 6.13401 5 10C5 10.0268 5.00015 10.0536 5.00045 10.0804C5.0002 10.0888 5.00005 10.0972 5 10.1056C4.9954 10.9434 4.99703 12.2057 4.99856 13.3972V13.3972L4.99856 13.3973L4.99856 13.3979C4.99929 13.9659 5 14.5178 5 15C5.00001 15.5523 5.44772 16 6 16H7.48312C5.32577 17.0824 4 18.9333 4 21C4 21.5523 4.44772 22 5 22C5.55228 22 6 21.5523 6 21C6 19.2701 7.93073 17 12 17C16.0693 17 18 19.2701 18 21C18 21.5523 18.4477 22 19 22C19.5523 22 20 21.5523 20 21C20 18.9333 18.6742 17.0824 16.5169 16H18C18.5523 16 19 15.5523 19 15C19 14.5175 19.0007 13.9651 19.0014 13.3966L19.0014 13.3951C19.0029 12.2042 19.0046 10.9429 19 10.1056C18.9999 10.0974 18.9998 10.0893 18.9995 10.0812Z"
      fill="#42b3a2"></path>
  </symbol>
  <symbol fill="none" xmlns="http://www.w3.org/2000/svg" viewBox="0 0 24 24" id="phone">
    <path fill-rule="evenodd" clip-rule="evenodd"
      d="M9.20711 14.7929C11.5251 17.111 13.6781 18.4033 15.2802 19.121C16.6787 19.7475 18.3296 19.2562 19.6167 17.9691L19.9114 17.6744L16.3752 15.4241C15.7026 16.4048 14.4319 16.979 13.1632 16.4434C12.2017 16.0376 10.9302 15.3445 9.7929 14.2071C8.65557 13.0698 7.96243 11.7983 7.55659 10.8369C7.02105 9.56817 7.59528 8.29741 8.57591 7.62479L6.32562 4.08863L6.0309 4.38335C4.74381 5.67044 4.25256 7.32131 4.87905 8.71986C5.59671 10.322 6.88908 12.4749 9.20711 14.7929ZM14.4626 20.9462C12.6479 20.1334 10.2905 18.7047 7.7929 16.2071C5.29532 13.7096 3.86668 11.3521 3.05381 9.53748C1.9781 7.13609 2.95955 4.62627 4.61669 2.96913L4.91141 2.67441C5.81615 1.76967 7.32602 1.93541 8.01294 3.01488L10.8437 7.46315C10.9957 7.70201 11.0393 7.99411 10.9637 8.26696C10.8881 8.53981 10.7005 8.76784 10.4472 8.89446L9.81354 9.2113C9.38171 9.42721 9.2931 9.80786 9.39916 10.0591C9.73804 10.8619 10.3046 11.8904 11.2071 12.7929C12.1097 13.6955 13.1381 14.262 13.9409 14.6009C14.1922 14.7069 14.5728 14.6183 14.7887 14.1865L15.1056 13.5528C15.2322 13.2996 15.4602 13.1119 15.7331 13.0363C16.0059 12.9607 16.298 13.0044 16.5369 13.1564L20.9852 15.9871C22.0646 16.674 22.2304 18.1839 21.3256 19.0886L21.0309 19.3833C19.3738 21.0405 16.8639 22.0219 14.4626 20.9462Z"
      fill="#42b3a2"></path>
  </symbol>


  <symbol fill="none" xmlns="http://www.w3.org/2000/svg" viewBox="0 0 16 16" id="css">
    <path fill-rule="nonzero" clip-rule="nonzero"
      d="M3 1.60001C2.86193 1.60001 2.75 1.71193 2.75 1.85001V11.4003C2.75 11.4896 2.79769 11.5722 2.87509 11.6168L7.73381 14.4194C7.80942 14.463 7.90231 14.464 7.97886 14.4221L13.1201 11.6048C13.2002 11.5609 13.25 11.4769 13.25 11.3856V1.85001C13.25 1.71193 13.1381 1.60001 13 1.60001H3ZM1.25 1.85001C1.25 0.883508 2.0335 0.100006 3 0.100006H13C13.9665 0.100006 14.75 0.883509 14.75 1.85001V11.3856C14.75 12.0248 14.4015 12.6131 13.841 12.9203L8.69968 15.7375C8.16383 16.0311 7.51363 16.024 6.98434 15.7187L2.12562 12.9162C1.58382 12.6037 1.25 12.0258 1.25 11.4003V1.85001ZM5 4.35001C5 3.93579 5.33579 3.60001 5.75 3.60001H10.3654C10.7796 3.60001 11.1154 3.93579 11.1154 4.35001V10.4462C11.1154 10.7302 10.9549 10.9899 10.7008 11.117L8.3931 12.2708C8.18196 12.3764 7.93343 12.3764 7.72228 12.2708L5.41459 11.117C5.1605 10.9899 5 10.7302 5 10.4462V9.86924C5 9.45502 5.33579 9.11924 5.75 9.11924C6.16421 9.11924 6.5 9.45502 6.5 9.86924V9.98263L8.05769 10.7615L9.61539 9.98263V8.31154H7C6.58579 8.31154 6.25 7.97576 6.25 7.56154C6.25 7.14733 6.58579 6.81154 7 6.81154H9.61539V5.10001H5.75C5.33579 5.10001 5 4.76422 5 4.35001Z"
      fill="#817d8f"></path>
  </symbol>
  <symbol fill="none" xmlns="http://www.w3.org/2000/svg" viewBox="0 0 24 24" id="figma">
    <path
      d="M12 3H9C7.34315 3 6 4.34315 6 6C6 7.65685 7.34315 9 9 9M12 3V9M12 3H15C16.6569 3 18 4.34315 18 6C18 7.65685 16.6569 9 15 9M12 9H9M12 9H15M12 9V15M9 9C7.34315 9 6 10.3431 6 12C6 13.6569 7.34315 15 9 15M15 9C16.6569 9 18 10.3431 18 12C18 13.6569 16.6569 15 15 15C13.3431 15 12 13.6569 12 12C12 10.3431 13.3431 9 15 9ZM12 15H9M12 15V18C12 19.6569 10.6569 21 9 21C7.34315 21 6 19.6569 6 18C6 16.3431 7.34315 15 9 15"
      stroke="#817d8f" stroke-width="2" stroke-linecap="round" stroke-linejoin="round"></path>
  </symbol>
  <symbol fill="none" xmlns="http://www.w3.org/2000/svg" viewBox="0 0 16 16" id="html">
    <path fill-rule="nonzero" clip-rule="nonzero"
      d="M3 1.5C2.86193 1.5 2.75 1.61193 2.75 1.75V11.3003C2.75 11.3896 2.79769 11.4722 2.87509 11.5168L7.73381 14.3194C7.80942 14.363 7.90231 14.364 7.97886 14.3221L13.1201 11.5048C13.2002 11.4609 13.25 11.3769 13.25 11.2856V1.75C13.25 1.61193 13.1381 1.5 13 1.5H3ZM1.25 1.75C1.25 0.783502 2.0335 0 3 0H13C13.9665 0 14.75 0.783503 14.75 1.75V11.2856C14.75 11.9248 14.4015 12.5131 13.841 12.8203L8.69968 15.6375C8.16383 15.9311 7.51363 15.924 6.98434 15.6187L2.12562 12.8162C1.58382 12.5037 1.25 11.9258 1.25 11.3003V1.75ZM5 4.25C5 3.83579 5.33579 3.5 5.75 3.5H10.3654C10.7796 3.5 11.1154 3.83579 11.1154 4.25C11.1154 4.66421 10.7796 5 10.3654 5H6.5V6.71154H10.3654C10.7796 6.71154 11.1154 7.04732 11.1154 7.46154V10.3462C11.1154 10.6302 10.9549 10.8899 10.7008 11.017L8.3931 12.1708C8.18196 12.2764 7.93343 12.2764 7.72228 12.1708L5.41459 11.017C5.1605 10.8899 5 10.6302 5 10.3462V9.76923C5 9.35502 5.33579 9.01923 5.75 9.01923C6.16421 9.01923 6.5 9.35502 6.5 9.76923V9.88263L8.05769 10.6615L9.61539 9.88263V8.21154H5.75C5.33579 8.21154 5 7.87575 5 7.46154V4.25Z"
      fill="#817d8f"></path>
  </symbol>
  <symbol fill="none" xmlns="http://www.w3.org/2000/svg" viewBox="0 0 16 16" id="javascript">
    <path fill-rule="nonzero" clip-rule="nonzero"
      d="M0 1.75C0 0.783501 0.783502 0 1.75 0H14.25C15.2165 0 16 0.783502 16 1.75V3.75C16 4.16421 15.6642 4.5 15.25 4.5C14.8358 4.5 14.5 4.16421 14.5 3.75V1.75C14.5 1.61193 14.3881 1.5 14.25 1.5H1.75C1.61193 1.5 1.5 1.61193 1.5 1.75V14.25C1.5 14.3881 1.61193 14.5 1.75 14.5H15.25C15.6642 14.5 16 14.8358 16 15.25C16 15.6642 15.6642 16 15.25 16H1.75C0.783501 16 0 15.2165 0 14.25V1.75ZM8.25 5.75C8.66421 5.75 9 6.08579 9 6.5V10.5C9 11.5048 8.72399 12.2584 8.15514 12.7324C7.61223 13.1848 6.95384 13.25 6.5 13.25C6.08579 13.25 5.75 12.9142 5.75 12.5C5.75 12.0858 6.08579 11.75 6.5 11.75C6.84617 11.75 7.06277 11.6902 7.19486 11.5801C7.301 11.4916 7.5 11.2452 7.5 10.5V6.5C7.5 6.08579 7.83578 5.75 8.25 5.75ZM11.2757 6.58011C11.6944 6.08164 12.3507 5.75 13.25 5.75C14.0849 5.75 14.7148 6.03567 15.1394 6.48481C15.4239 6.78583 15.4105 7.26052 15.1095 7.54505C14.8085 7.82958 14.3338 7.81621 14.0493 7.51519C13.9394 7.39898 13.7204 7.25 13.25 7.25C12.7493 7.25 12.5306 7.41836 12.4243 7.54489C12.2934 7.70065 12.25 7.896 12.25 8C12.25 8.104 12.2934 8.29935 12.4243 8.45511C12.5306 8.58164 12.7493 8.75 13.25 8.75C13.3257 8.75 13.3988 8.76121 13.4676 8.78207C14.1307 8.87646 14.6319 9.17251 14.9743 9.58011C15.3684 10.0493 15.5 10.604 15.5 11C15.5 11.396 15.3684 11.9507 14.9743 12.4199C14.5556 12.9184 13.8993 13.25 13 13.25C12.1651 13.25 11.5352 12.9643 11.1106 12.5152C10.8261 12.2142 10.8395 11.7395 11.1405 11.4549C11.4415 11.1704 11.9162 11.1838 12.2007 11.4848C12.3106 11.601 12.5296 11.75 13 11.75C13.5007 11.75 13.7194 11.5816 13.8257 11.4551C13.9566 11.2993 14 11.104 14 11C14 10.896 13.9566 10.7007 13.8257 10.5449C13.7194 10.4184 13.5007 10.25 13 10.25C12.9243 10.25 12.8512 10.2388 12.7824 10.2179C12.1193 10.1235 11.6181 9.82749 11.2757 9.41989C10.8816 8.95065 10.75 8.396 10.75 8C10.75 7.604 10.8816 7.04935 11.2757 6.58011Z"
      fill="#817d8f"></path>
  </symbol>
  <symbol fill="none" xmlns="http://www.w3.org/2000/svg" viewBox="0 0 16 16" id="nodejs">
    <path fill-rule="nonzero" clip-rule="nonzero"
      d="M7.58638 0.102166C7.8199 -0.0340553 8.10867 -0.0340553 8.34219 0.102166L14.5565 3.72717C14.7869 3.86157 14.9286 4.10825 14.9286 4.375V11.625C14.9286 11.8918 14.7869 12.1384 14.5565 12.2728L8.34219 15.8978C8.10867 16.0341 7.8199 16.0341 7.58638 15.8978L6.03281 14.9916C5.67502 14.7829 5.55417 14.3236 5.76288 13.9658C5.97159 13.6081 6.43083 13.4872 6.78862 13.6959L7.96429 14.3817L13.4286 11.1942V4.80578L7.96429 1.61828L2.5 4.80578V11.1942L3.6168 11.8457C3.96098 11.9561 4.38611 11.9831 4.68576 11.8507C4.82477 11.7893 4.95031 11.6893 5.04968 11.5107C5.15426 11.3227 5.25 11.0098 5.25 10.5V5.25C5.25 4.83579 5.58579 4.5 6 4.5C6.41421 4.5 6.75 4.83579 6.75 5.25V10.5C6.75 11.1902 6.62104 11.7716 6.36047 12.2399C6.09471 12.7176 5.71466 13.036 5.29192 13.2228C4.48562 13.579 3.59523 13.433 3.04999 13.2371C3.00686 13.2216 2.96525 13.2022 2.92567 13.1791L1.3721 12.2728C1.14168 12.1384 1 11.8918 1 11.625V4.375C1 4.10825 1.14168 3.86157 1.3721 3.72717L7.58638 0.102166ZM8.24655 5.28323C8.64339 4.81081 9.26318 4.5 10.1042 4.5C10.8847 4.5 11.4792 4.76756 11.8815 5.19314C12.166 5.49417 12.1527 5.96885 11.8516 6.25338C11.5506 6.53792 11.0759 6.52455 10.7914 6.22352C10.7038 6.13087 10.5202 6 10.1042 6C9.66182 6 9.47952 6.14753 9.39511 6.24802C9.28615 6.37774 9.25 6.54184 9.25 6.625C9.25 6.70816 9.28615 6.87226 9.39511 7.00198C9.47952 7.10247 9.66182 7.25 10.1042 7.25C10.1782 7.25 10.2497 7.26073 10.3173 7.28072C10.9368 7.37001 11.4089 7.64784 11.7326 8.03323C12.1049 8.47643 12.2292 8.99983 12.2292 9.375C12.2292 9.75017 12.1049 10.2736 11.7326 10.7168C11.3358 11.1892 10.716 11.5 9.87501 11.5C9.0945 11.5 8.49996 11.2324 8.09768 10.8069C7.81315 10.5058 7.82652 10.0311 8.12755 9.74662C8.42857 9.46208 8.90325 9.47546 9.18779 9.77648C9.27536 9.86913 9.459 10 9.87501 10C10.3174 10 10.4997 9.85247 10.5841 9.75198C10.693 9.62226 10.7292 9.45816 10.7292 9.375C10.7292 9.29184 10.693 9.12774 10.5841 8.99802C10.4997 8.89753 10.3174 8.75 9.87501 8.75C9.80097 8.75 9.72943 8.73927 9.66188 8.71928C9.04237 8.62999 8.57028 8.35216 8.24655 7.96677C7.87427 7.52357 7.75 7.00017 7.75 6.625C7.75 6.24983 7.87427 5.72643 8.24655 5.28323Z"
      fill="#817d8f"></path>
  </symbol>
  <symbol fill="none" xmlns="http://www.w3.org/2000/svg" viewBox="0 0 16 16" id="npm">
    <path fill-rule="nonzero" clip-rule="nonzero"
      d="M1 2.88462C1 1.84377 1.84377 1 2.88462 1H13.1154C14.1562 1 15 1.84377 15 2.88462V13.1154C15 14.1562 14.1562 15 13.1154 15H2.88462C1.84377 15 1 14.1562 1 13.1154V2.88462ZM2.88462 2.61538C2.73592 2.61538 2.61538 2.73592 2.61538 2.88462V13.1154C2.61538 13.2641 2.73592 13.3846 2.88462 13.3846H8.53846V6.38462C8.53846 5.93854 8.90008 5.57692 9.34615 5.57692C9.79223 5.57692 10.1538 5.93854 10.1538 6.38462V13.3846H13.1154C13.2641 13.3846 13.3846 13.2641 13.3846 13.1154V2.88462C13.3846 2.73592 13.2641 2.61538 13.1154 2.61538H2.88462Z"
      fill="#817d8f"></path>
  </symbol>
  <symbol fill="none" xmlns="http://www.w3.org/2000/svg" viewBox="0 0 16 16" id="react">
    <path fill-rule="nonzero" clip-rule="nonzero"
      d="M4.84989 2.37195C4.59895 2.51683 4.33488 2.91636 4.30424 3.78785C4.28968 4.20181 3.9423 4.52559 3.52835 4.51103C3.11439 4.49647 2.79061 4.1491 2.80516 3.73514C2.84273 2.66673 3.1806 1.60366 4.09989 1.07291C5.02179 0.540653 6.11484 0.782356 7.06128 1.28727C7.42674 1.48224 7.56495 1.93656 7.36998 2.30201C7.17501 2.66747 6.72069 2.80568 6.35524 2.61072C5.5818 2.1981 5.10158 2.22663 4.84989 2.37195ZM8.87139 3.67284C9.19036 3.40858 9.66315 3.45293 9.92741 3.7719C10.4818 4.44103 11.0136 5.20405 11.4963 6.04018C12.5366 7.84191 13.178 9.68785 13.3509 11.2362C13.4372 12.0091 13.4108 12.7446 13.2303 13.3754C13.0484 14.011 12.6941 14.5863 12.0999 14.9293C11.381 15.3444 10.5509 15.2855 9.79114 15.0089C9.02868 14.7313 8.24395 14.2056 7.49586 13.5228C7.18993 13.2435 7.16831 12.7691 7.44756 12.4632C7.72681 12.1573 8.20119 12.1356 8.50712 12.4149C9.16624 13.0165 9.78567 13.4105 10.3043 13.5994C10.8257 13.7892 11.1537 13.7436 11.3499 13.6303C11.5143 13.5354 11.6797 13.342 11.7882 12.9627C11.8981 12.5787 11.9328 12.0529 11.8602 11.4026C11.7152 10.1045 11.1591 8.45607 10.1973 6.79018C9.75492 6.02396 9.27081 5.33055 8.77232 4.72886C8.50807 4.40989 8.55242 3.93709 8.87139 3.67284Z"
      fill="#817d8f"></path>
    <path fill-rule="nonzero" clip-rule="nonzero"
      d="M14.5 8.20557C14.5 7.91581 14.286 7.48735 13.5466 7.02507C13.1954 6.80549 13.0887 6.34276 13.3083 5.99154C13.5279 5.64032 13.9906 5.53361 14.3418 5.75319C15.2483 6.31993 16 7.14407 16 8.20557C16 9.27009 15.2442 10.0958 14.3337 10.663C13.9821 10.882 13.5195 10.7746 13.3005 10.423C13.0815 10.0714 13.189 9.60887 13.5405 9.38985C14.2846 8.92635 14.5 8.4962 14.5 8.20557ZM11.3626 11.0378C11.432 11.4462 11.1572 11.8335 10.7488 11.9029C9.89219 12.0484 8.96547 12.1274 8 12.1274C5.91954 12.1274 4.00018 11.76 2.57286 11.1355C1.86032 10.8238 1.23659 10.4332 0.780529 9.9615C0.320977 9.48616 0 8.89166 0 8.20557C0 7.37549 0.466082 6.68599 1.08548 6.16636C1.70712 5.64485 2.55471 5.22808 3.52013 4.92164C3.91494 4.79633 4.33657 5.01479 4.46189 5.40959C4.5872 5.80439 4.36874 6.22603 3.97394 6.35135C3.12334 6.62134 2.4724 6.96078 2.04954 7.31553C1.62442 7.67217 1.5 7.97899 1.5 8.20557C1.5 8.39536 1.58476 8.6353 1.85895 8.91891C2.13663 9.20613 2.57464 9.49905 3.17409 9.76131C4.37076 10.2848 6.07639 10.6274 8 10.6274C8.88475 10.6274 9.72732 10.5549 10.4976 10.424C10.906 10.3547 11.2933 10.6295 11.3626 11.0378Z"
      fill="#817d8f"></path>
    <path fill-rule="nonzero" clip-rule="nonzero"
      d="M4.87192 13.6303C5.12286 13.7752 5.6009 13.8041 6.37095 13.3949C6.73673 13.2005 7.19082 13.3395 7.38519 13.7052C7.57957 14.071 7.44062 14.5251 7.07484 14.7195C6.13079 15.2211 5.04121 15.4601 4.12192 14.9293C3.20003 14.3971 2.86282 13.3296 2.82687 12.2575C2.81299 11.8435 3.13733 11.4967 3.55131 11.4828C3.96529 11.4689 4.31215 11.7932 4.32603 12.2072C4.35541 13.0834 4.62023 13.485 4.87192 13.6303ZM3.98778 9.49712C3.59944 9.35301 3.40145 8.92138 3.54556 8.53304C3.84786 7.71839 4.24274 6.8763 4.72548 6.04018C5.76571 4.23845 7.04361 2.75996 8.29806 1.83609C8.92431 1.37487 9.57441 1.02999 10.211 0.870901C10.8524 0.71059 11.5278 0.729863 12.1219 1.07291C12.8408 1.48795 13.2049 2.23634 13.3452 3.03257C13.486 3.83168 13.4232 4.77409 13.2058 5.7634C13.1169 6.16796 12.7169 6.42388 12.3124 6.33501C11.9078 6.24613 11.6519 5.84612 11.7408 5.44155C11.9322 4.56992 11.9637 3.83647 11.868 3.29288C11.7717 2.7464 11.5681 2.48524 11.3719 2.37195C11.2076 2.27705 10.9574 2.23049 10.5747 2.32614C10.1871 2.42301 9.71442 2.65588 9.18757 3.04388C8.13584 3.81846 6.98632 5.12428 6.02452 6.79018C5.58214 7.55639 5.22369 8.32235 4.95185 9.0549C4.80774 9.44323 4.37611 9.64122 3.98778 9.49712Z"
      fill="#817d8f"></path>
    <path
      d="M9.45925 8.06618C9.45925 8.81694 8.85063 9.42556 8.09987 9.42556C7.34911 9.42556 6.7405 8.81694 6.7405 8.06618C6.7405 7.31542 7.34911 6.70681 8.09987 6.70681C8.85063 6.70681 9.45925 7.31542 9.45925 8.06618Z"
      fill="#817d8f"></path>
  </symbol>
  <symbol fill="none" xmlns="http://www.w3.org/2000/svg" viewBox="0 0 16 16" id="typescript">
    <path fill-rule="nonzero" clip-rule="nonzero"
      d="M0 1.75C0 0.783501 0.783502 0 1.75 0H14.25C15.2165 0 16 0.783502 16 1.75V3.75C16 4.16421 15.6642 4.5 15.25 4.5C14.8358 4.5 14.5 4.16421 14.5 3.75V1.75C14.5 1.61193 14.3881 1.5 14.25 1.5H1.75C1.61193 1.5 1.5 1.61193 1.5 1.75V14.25C1.5 14.3881 1.61193 14.5 1.75 14.5H15.25C15.6642 14.5 16 14.8358 16 15.25C16 15.6642 15.6642 16 15.25 16H1.75C0.783501 16 0 15.2165 0 14.25V1.75ZM4.75 6.5C4.75 6.08579 5.08579 5.75 5.5 5.75H9.25C9.66421 5.75 10 6.08579 10 6.5C10 6.91421 9.66421 7.25 9.25 7.25H8.25V12.5C8.25 12.9142 7.91421 13.25 7.5 13.25C7.08579 13.25 6.75 12.9142 6.75 12.5V7.25H5.5C5.08579 7.25 4.75 6.91421 4.75 6.5ZM11.2757 6.58011C11.6944 6.08164 12.3507 5.75 13.25 5.75C14.0849 5.75 14.7148 6.03567 15.1394 6.48481C15.4239 6.78583 15.4105 7.26052 15.1095 7.54505C14.8085 7.82958 14.3338 7.81621 14.0493 7.51519C13.9394 7.39898 13.7204 7.25 13.25 7.25C12.7493 7.25 12.5306 7.41836 12.4243 7.54489C12.2934 7.70065 12.25 7.896 12.25 8C12.25 8.104 12.2934 8.29935 12.4243 8.45511C12.5306 8.58164 12.7493 8.75 13.25 8.75C13.3257 8.75 13.3988 8.76121 13.4676 8.78207C14.1307 8.87646 14.6319 9.17251 14.9743 9.58011C15.3684 10.0493 15.5 10.604 15.5 11C15.5 11.396 15.3684 11.9507 14.9743 12.4199C14.5556 12.9184 13.8993 13.25 13 13.25C12.1651 13.25 11.5352 12.9643 11.1106 12.5152C10.8261 12.2142 10.8395 11.7395 11.1405 11.4549C11.4415 11.1704 11.9162 11.1838 12.2007 11.4848C12.3106 11.601 12.5296 11.75 13 11.75C13.5007 11.75 13.7194 11.5816 13.8257 11.4551C13.9566 11.2993 14 11.104 14 11C14 10.896 13.9566 10.7007 13.8257 10.5449C13.7194 10.4184 13.5007 10.25 13 10.25C12.9243 10.25 12.8512 10.2388 12.7824 10.2179C12.1193 10.1235 11.6181 9.82749 11.2757 9.41989C10.8816 8.95065 10.75 8.396 10.75 8C10.75 7.604 10.8816 7.04935 11.2757 6.58011Z"
      fill="#817d8f"></path>
  </symbol>
  <symbol fill="none" xmlns="http://www.w3.org/2000/svg" viewBox="0 0 16 16" id="vscode">
    <path
      d="M11.573 0.275 C 11.507 0.294,11.421 0.327,11.382 0.348 C 11.343 0.369,9.999 1.520,8.396 2.906 C 6.792 4.291,5.462 5.424,5.440 5.424 C 5.418 5.424,4.776 4.956,4.013 4.384 C 3.251 3.813,2.585 3.327,2.533 3.306 C 2.383 3.243,2.065 3.256,1.920 3.330 C 1.754 3.416,0.189 4.975,0.094 5.150 C -0.036 5.390,-0.020 5.704,0.134 5.916 C 0.175 5.973,0.709 6.473,1.319 7.026 C 1.930 7.579,2.426 8.041,2.421 8.052 C 2.417 8.064,1.926 8.494,1.330 9.009 C 0.734 9.523,0.208 9.990,0.162 10.045 C -0.015 10.259,-0.044 10.597,0.093 10.849 C 0.189 11.024,1.752 12.583,1.920 12.670 C 2.086 12.757,2.417 12.759,2.573 12.675 C 2.632 12.644,3.273 12.173,3.997 11.629 L 5.315 10.641 5.424 10.741 C 5.484 10.796,6.713 11.909,8.154 13.214 C 10.000 14.885,10.820 15.610,10.926 15.667 L 11.076 15.747 11.750 15.747 L 12.424 15.747 14.055 14.933 C 15.555 14.185,15.695 14.110,15.803 13.991 C 16.016 13.754,16.000 14.232,16.000 8.253 C 16.000 2.432,16.009 2.785,15.849 2.554 C 15.791 2.470,15.439 2.223,14.215 1.406 C 13.358 0.834,12.602 0.341,12.535 0.311 C 12.435 0.266,12.348 0.255,12.053 0.248 C 11.816 0.243,11.652 0.252,11.573 0.275 M13.272 2.580 L 14.505 3.400 14.506 8.220 L 14.507 13.040 13.302 13.640 L 12.098 14.240 11.813 14.240 L 11.529 14.240 8.660 11.644 C 7.082 10.216,5.748 9.028,5.697 9.003 C 5.498 8.909,5.197 8.902,5.036 8.989 C 5.002 9.007,4.385 9.464,3.664 10.004 C 2.943 10.545,2.342 10.987,2.329 10.987 C 2.299 10.987,1.852 10.539,1.868 10.525 C 2.541 9.948,3.946 8.731,4.050 8.634 C 4.136 8.553,4.219 8.442,4.260 8.354 C 4.317 8.227,4.325 8.180,4.314 8.011 C 4.304 7.853,4.286 7.788,4.223 7.687 C 4.170 7.601,3.769 7.221,2.994 6.520 L 1.844 5.480 2.075 5.247 C 2.202 5.118,2.317 5.013,2.331 5.013 C 2.344 5.013,2.975 5.478,3.731 6.046 C 5.227 7.169,5.268 7.194,5.541 7.162 C 5.619 7.153,5.733 7.122,5.794 7.093 C 5.856 7.064,6.297 6.703,6.773 6.291 C 7.250 5.879,7.784 5.417,7.960 5.265 C 8.136 5.113,9.120 4.263,10.147 3.375 C 11.173 2.488,12.019 1.761,12.026 1.761 C 12.034 1.760,12.594 2.129,13.272 2.580 M11.640 4.257 C 11.611 4.263,11.539 4.286,11.480 4.308 C 11.421 4.329,10.401 5.046,9.213 5.901 C 6.867 7.590,6.920 7.547,6.851 7.854 C 6.825 7.969,6.825 8.031,6.851 8.146 C 6.919 8.453,6.868 8.410,9.213 10.099 C 10.401 10.954,11.427 11.675,11.493 11.700 C 11.840 11.833,12.236 11.671,12.422 11.320 L 12.493 11.187 12.493 8.000 L 12.493 4.813 12.422 4.680 C 12.333 4.512,12.208 4.391,12.053 4.324 C 11.926 4.268,11.729 4.236,11.640 4.257 M10.980 8.757 L 10.973 9.514 9.927 8.764 C 9.352 8.351,8.881 8.007,8.881 8.000 C 8.881 7.993,9.352 7.649,9.927 7.236 L 10.973 6.486 10.980 7.243 C 10.984 7.659,10.984 8.341,10.980 8.757 "
      stroke="none" fill="#817d8f" fill-rule="evenodd"></path>
  </symbol>
  <symbol fill="#817d8f" version="1.1" xmlns="http://www.w3.org/2000/svg" viewBox="0 0 32 32" id="mongodb">

    <path
      d="M15.821 23.185s0-10.361 0.344-10.36c0.266 0 0.612 13.365 0.612 13.365-0.476-0.056-0.956-2.199-0.956-3.005zM22.489 12.945c-0.919-4.016-2.932-7.469-5.708-10.134l-0.007-0.006c-0.338-0.516-0.647-1.108-0.895-1.732l-0.024-0.068c0.001 0.020 0.001 0.044 0.001 0.068 0 0.565-0.253 1.070-0.652 1.409l-0.003 0.002c-3.574 3.034-5.848 7.505-5.923 12.508l-0 0.013c-0.001 0.062-0.001 0.135-0.001 0.208 0 4.957 2.385 9.357 6.070 12.115l0.039 0.028 0.087 0.063q0.241 1.784 0.412 3.576h0.601c0.166-1.491 0.39-2.796 0.683-4.076l-0.046 0.239c0.396-0.275 0.742-0.56 1.065-0.869l-0.003 0.003c2.801-2.597 4.549-6.297 4.549-10.404 0-0.061-0-0.121-0.001-0.182l0 0.009c-0.003-0.981-0.092-1.94-0.261-2.871l0.015 0.099z">
    </path>
  </symbol>

  <symbol xmlns="http://www.w3.org/2000/svg" viewBox="0 0 50 50" id="expressjs">
    <path
      d="M49.729 11h-.85c-1.051 0-2.041.49-2.68 1.324l-8.7 11.377-8.7-11.377C28.162 11.49 27.171 11 26.121 11h-.85l10.971 14.346L25.036 40h.85c1.051 0 2.041-.49 2.679-1.324L37.5 26.992l8.935 11.684C47.073 39.51 48.063 40 49.114 40h.85L38.758 25.346 49.729 11zM21.289 34.242c-2.554 3.881-7.582 5.87-12.389 4.116C4.671 36.815 2 32.611 2 28.109L2 27h12v0h11l0-4.134c0-6.505-4.818-12.2-11.295-12.809C6.273 9.358 0 15.21 0 22.5l0 5.573c0 5.371 3.215 10.364 8.269 12.183 6.603 2.376 13.548-1.17 15.896-7.256 0 0 0 0 0 0h-.638C22.616 33 21.789 33.481 21.289 34.242zM2 22.5C2 16.71 6.71 12 12.5 12S23 16.71 23 22.5V25H2V22.5z"
      fill="#817d8f">
    </path>
  </symbol>
  <symbol version="1.1" xmlns="http://www.w3.org/2000/svg" xmlns:xlink="http://www.w3.org/1999/xlink"
    preserveAspectRatio="xMidYMid" viewBox="-27 0 310 310" id="prisma">
    <g>
      <path
        d="M254.312882,235.518775 L148.000961,9.74987264 C145.309805,4.08935083 139.731924,0.359884549 133.472618,0.0359753113 C127.198908,-0.384374336 121.212054,2.71925839 117.939655,8.08838662 L2.63252565,194.847143 C-0.947129465,200.604248 -0.871814894,207.912774 2.8257217,213.594888 L59.2003287,300.896318 C63.5805009,307.626626 71.8662281,310.673635 79.5631922,308.384597 L243.161606,259.992851 C248.145475,258.535702 252.252801,254.989363 254.421072,250.271225 C256.559881,245.57581 256.523135,240.176915 254.32061,235.511047 L254.312882,235.518775 Z M230.511129,245.201761 L91.6881763,286.252058 C87.4533189,287.511696 83.388474,283.840971 84.269448,279.567474 L133.866738,42.0831633 C134.794079,37.6396542 140.929985,36.9364206 142.869673,41.0476325 L234.684164,236.021085 C235.505704,237.779423 235.515611,239.809427 234.711272,241.575701 C233.906934,243.341974 232.369115,244.667163 230.503401,245.201761 L230.511129,245.201761 Z"
        fill="#817d8f" fill-rule="nonzero"></path>
    </g>
  </symbol>
  <symbol fill="none" xmlns="http://www.w3.org/2000/svg" viewBox="0 0 24 24" id="git">
    <path fill-rule="evenodd" clip-rule="evenodd"
      d="M13.4142 3.82843C12.6332 3.04738 11.3668 3.04738 10.5858 3.82843L9.91421 4.5L11.482 6.06774C11.6472 6.02356 11.8208 6 12 6C13.1046 6 14 6.89543 14 8C14 8.17916 13.9764 8.35282 13.9323 8.51804L15.982 10.5677C16.1472 10.5236 16.3208 10.5 16.5 10.5C17.6046 10.5 18.5 11.3954 18.5 12.5C18.5 13.6046 17.6046 14.5 16.5 14.5C15.3954 14.5 14.5 13.6046 14.5 12.5C14.5 12.3208 14.5236 12.1472 14.5677 11.982L13 10.4142V15.2676C13.5978 15.6134 14 16.2597 14 17C14 18.1046 13.1046 19 12 19C10.8954 19 10 18.1046 10 17C10 16.2597 10.4022 15.6134 11 15.2676V9.73244C10.4022 9.38663 10 8.74028 10 8C10 7.82084 10.0236 7.64718 10.0677 7.48196L8.5 5.91421L3.82843 10.5858C3.04738 11.3668 3.04738 12.6332 3.82843 13.4142L10.5858 20.1716C11.3668 20.9526 12.6332 20.9526 13.4142 20.1716L20.1716 13.4142C20.9526 12.6332 20.9526 11.3668 20.1716 10.5858L13.4142 3.82843ZM9.17157 2.41421C10.7337 0.852115 13.2663 0.852119 14.8284 2.41422L21.5858 9.17157C23.1479 10.7337 23.1479 13.2663 21.5858 14.8284L14.8284 21.5858C13.2663 23.1479 10.7337 23.1479 9.17157 21.5858L2.41421 14.8284C0.852115 13.2663 0.852119 10.7337 2.41422 9.17157L9.17157 2.41421Z"
      fill="#817d8f"></path>
  </symbol>
  <symbol xmlns="http://www.w3.org/2000/svg" viewBox="0 0 24 24" id="github">

    <rect width="24" height="24" fill="none"></rect>
    <path
      d="M12,2A10,10,0,0,0,8.84,21.5c.5.08.66-.23.66-.5V19.31C6.73,19.91,6.14,18,6.14,18A2.69,2.69,0,0,0,5,16.5c-.91-.62.07-.6.07-.6a2.1,2.1,0,0,1,1.53,1,2.15,2.15,0,0,0,2.91.83,2.16,2.16,0,0,1,.63-1.34C8,16.17,5.62,15.31,5.62,11.5a3.87,3.87,0,0,1,1-2.71,3.58,3.58,0,0,1,.1-2.64s.84-.27,2.75,1a9.63,9.63,0,0,1,5,0c1.91-1.29,2.75-1,2.75-1a3.58,3.58,0,0,1,.1,2.64,3.87,3.87,0,0,1,1,2.71c0,3.82-2.34,4.66-4.57,4.91a2.39,2.39,0,0,1,.69,1.85V21c0,.27.16.59.67.5A10,10,0,0,0,12,2Z"
      fill="#817d8f">
    </path>
  </symbol>
  <symbol fill="none" xmlns="http://www.w3.org/2000/svg" viewBox="0 0 24 24" id="terminal">
    <path
      d="M22 9H2M6 17.5L8.5 15L6 12.5M11 17.5L15 17.5M2 7.8L2 16.2C2 17.8802 2 18.7202 2.32698 19.362C2.6146 19.9265 3.07354 20.3854 3.63803 20.673C4.27976 21 5.11984 21 6.8 21H17.2C18.8802 21 19.7202 21 20.362 20.673C20.9265 20.3854 21.3854 19.9265 21.673 19.362C22 18.7202 22 17.8802 22 16.2V7.8C22 6.11984 22 5.27977 21.673 4.63803C21.3854 4.07354 20.9265 3.6146 20.362 3.32698C19.7202 3 18.8802 3 17.2 3L6.8 3C5.11984 3 4.27976 3 3.63803 3.32698C3.07354 3.6146 2.6146 4.07354 2.32698 4.63803C2 5.27976 2 6.11984 2 7.8Z"
      stroke="#817d8f" stroke-width="2" stroke-linecap="round" stroke-linejoin="round"></path>
  </symbol>
  <symbol xmlns="http://www.w3.org/2000/svg" viewBox="0 0 24 24" id="sass">

    <rect width="24" height="24" fill="none"></rect>
    <path
      d="M12,2A10,10,0,1,1,2,12,10,10,0,0,1,12,2M10,15.33a2.55,2.55,0,0,1,0,1.5c0,.05,0,.1-.06.17s0,.07-.07.12a2.5,2.5,0,0,1-.46.67c-.58.64-1.41.88-1.74.68s-.17-1.12.49-1.83a6.91,6.91,0,0,1,1.76-1.26h0l.08-.05m8.27-9c-.45-1.78-3.4-2.36-6.18-1.37A14,14,0,0,0,7.34,7.63c-1.53,1.44-1.78,2.69-1.68,3.21.34,1.84,2.88,3.05,3.92,3.94h0c-.3.15-2.54,1.28-3.08,2.44A1.62,1.62,0,0,0,7,19.45a3.16,3.16,0,0,0,3.41-1.38A3.44,3.44,0,0,0,10.75,15a4.34,4.34,0,0,1,1.53-.08c1.76.21,2.1,1.3,2,1.76a1.16,1.16,0,0,1-.55.79c-.12.07-.16.1-.15.16s.07.08.17.06a1.36,1.36,0,0,0,1-1.22c0-1.08-1-2.28-2.81-2.25a4.84,4.84,0,0,0-1.56.22l-.08-.09c-1.13-1.2-3.21-2-3.12-3.67,0-.59.23-2.13,4-4,3.08-1.54,5.55-1.12,6-.17.61,1.33-1.32,3.82-4.52,4.18a2.44,2.44,0,0,1-2-.51c-.17-.17-.19-.2-.25-.17s0,.23,0,.33a2,2,0,0,0,1.15.91,6.18,6.18,0,0,0,3.76-.37C17.2,10.12,18.72,8,18.27,6.28Z"
      fill="#817d8f">
    </path>
  </symbol>
  <symbol fill="#817d8f" version="1.1" xmlns="http://www.w3.org/2000/svg" xmlns:xlink="http://www.w3.org/1999/xlink"
    enable-background="new 0 0 512 512" xml:space="preserve" viewBox="0 0 512 512" id="corel-draw">
    <g id="2069a460dcf28295e231f3111e0396ed">
      <path display="inline" d="M239.532,463.443h32.923c5.977,0,10.85,4.873,10.85,10.85v26.369c0,5.963-4.873,10.837-10.85,10.837
		h-32.923c-5.963,0-10.837-4.874-10.837-10.837v-26.369C228.695,468.316,233.569,463.443,239.532,463.443L239.532,463.443z
		 M239.532,463.443 M102.525,146.023c0.412,81.391,69.535,208.35,133.431,295.97h6.288
		c-48.593-88.639-90.036-197.933-90.402-284.073c-0.341-78.151,31.58-127.745,74.662-156.048c-9.564,0.89-19.146,2.217-28.64,4.042
		C144.734,27.04,102.144,70.638,102.525,146.023L102.525,146.023z M102.525,146.023 M243.163,0.753
		c-24.897,33.505-44.102,81.012-43.931,149.948c0.229,89.978,21.279,196.93,48.426,291.292h16.684
		c27.147-94.361,48.197-201.314,48.427-291.292c0.17-68.936-19.034-116.443-43.931-149.948
		C260.288,0.417,251.713,0.417,243.163,0.753L243.163,0.753z M243.163,0.753 M409.475,146.023
		c-0.411,81.391-69.534,208.35-133.431,295.97h-6.287c48.592-88.639,90.036-197.933,90.397-284.073
		C360.5,79.77,328.579,30.175,285.497,1.872c9.564,0.89,19.146,2.217,28.627,4.042C367.266,27.04,409.854,70.638,409.475,146.023
		L409.475,146.023z M409.475,146.023 M280.382,441.993c71.526-75.27,152.676-201.084,153.212-298.033
		c0.325-59.454-28.614-98.881-69.151-122.959c49.665,21.308,87.449,60.635,87.083,124.556
		c-0.582,98.475-94.968,228.569-169.9,296.436H280.382z M280.382,441.993 M231.619,441.993
		C160.092,366.724,78.943,240.909,78.406,143.96c-0.324-59.454,28.603-98.881,69.14-122.959
		C97.894,42.31,60.109,81.637,60.475,145.557c0.583,98.475,94.969,228.569,169.9,296.436H231.619z M231.619,441.993">
      </path>
    </g>
  </symbol>


  <symbol xmlns="http://www.w3.org/2000/svg" id="backend" viewBox="0 0 24 24">
    <path
      d="M21.3,13.88l-.45-.26c.1-.54,.15-1.09,.15-1.63s-.05-1.08-.15-1.63l.45-.26c1.43-.82,1.93-2.66,1.11-4.1-.4-.69-1.05-1.19-1.82-1.4-.77-.21-1.58-.1-2.28,.3l-.45,.26c-.84-.72-1.81-1.28-2.86-1.65v-.52c0-1.65-1.35-3-3-3s-3,1.35-3,3v.52c-1.05,.37-2.02,.93-2.86,1.65l-.45-.26c-.69-.4-1.5-.5-2.28-.3-.77,.21-1.42,.71-1.82,1.4-.82,1.43-.33,3.27,1.1,4.1l.45,.26c-.1,.54-.15,1.09-.15,1.63s.05,1.08,.15,1.63l-.45,.26c-1.43,.82-1.93,2.66-1.11,4.1,.4,.69,1.05,1.19,1.82,1.4,.77,.21,1.58,.1,2.28-.3l.45-.26c.84,.72,1.81,1.28,2.86,1.65v.52c0,1.65,1.35,3,3,3s3-1.35,3-3v-.52c1.05-.37,2.02-.93,2.86-1.65l.45,.26c.69,.4,1.5,.51,2.28,.3,.77-.21,1.42-.71,1.82-1.4,.82-1.43,.33-3.27-1.1-4.1Zm-2.56-3.74c.17,.62,.26,1.25,.26,1.86s-.09,1.23-.26,1.86c-.12,.44,.07,.9,.47,1.13l1.09,.63c.48,.28,.64,.89,.37,1.37-.13,.23-.35,.4-.61,.47-.26,.07-.53,.04-.76-.1l-1.09-.63c-.4-.23-.89-.16-1.21,.17-.89,.91-2.01,1.56-3.25,1.88-.44,.11-.75,.51-.75,.97v1.26c0,.55-.45,1-1,1s-1-.45-1-1v-1.26c0-.46-.31-.85-.75-.97-1.24-.32-2.36-.97-3.25-1.88-.19-.2-.45-.3-.72-.3-.17,0-.34,.04-.5,.13l-1.09,.63c-.23,.13-.5,.17-.76,.1-.26-.07-.47-.24-.61-.47-.27-.48-.11-1.09,.37-1.37l1.09-.63c.4-.23,.59-.69,.47-1.13-.17-.62-.26-1.25-.26-1.86s.09-1.23,.26-1.86c.12-.44-.07-.9-.47-1.13l-1.09-.63c-.48-.28-.64-.89-.37-1.37,.13-.23,.35-.4,.61-.47,.26-.07,.53-.03,.76,.1l1.09,.63c.4,.23,.89,.16,1.21-.17,.89-.91,2.01-1.56,3.25-1.88,.44-.11,.75-.51,.75-.97v-1.26c0-.55,.45-1,1-1s1,.45,1,1v1.26c0,.46,.31,.85,.75,.97,1.24,.32,2.36,.97,3.25,1.88,.32,.33,.82,.4,1.21,.17l1.09-.63c.23-.13,.5-.17,.76-.1,.26,.07,.47,.24,.61,.47,.27,.48,.11,1.09-.37,1.37l-1.09,.63c-.4,.23-.59,.69-.47,1.13Zm-4.96-1.94l-1.6,8c-.09,.48-.51,.8-.98,.8-.06,0-.13,0-.2-.02-.54-.11-.89-.63-.78-1.18l1.6-8c.11-.54,.63-.89,1.18-.78,.54,.11,.89,.63,.78,1.18Zm-4.57,2.65l-1.21,1.21,1.21,1.19c.39,.39,.39,1.02,0,1.41-.2,.2-.45,.29-.71,.29s-.51-.1-.71-.29l-1.21-1.21c-.78-.78-.78-2.04,0-2.81l1.21-1.21c.39-.39,1.02-.39,1.41,0s.39,1.02,0,1.41Zm8.21-.2c.78,.78,.78,2.04,0,2.81l-1.21,1.21c-.2,.2-.45,.29-.71,.29s-.51-.1-.71-.29c-.39-.39-.39-1.02,0-1.41l1.21-1.21-1.21-1.2c-.39-.39-.39-1.02,0-1.41s1.02-.39,1.41,0l1.21,1.21Z"
      fill="#f5ca55">
    </path>
  </symbol>
  <symbol xmlns="http://www.w3.org/2000/svg" id="internet" viewBox="0 0 24 24">
    <path
      d="M12,0A12,12,0,1,0,24,12,12.013,12.013,0,0,0,12,0ZM22,12a9.938,9.938,0,0,1-1.662,5.508l-1.192-1.193A.5.5,0,0,1,19,15.962V15a3,3,0,0,0-3-3H13a1,1,0,0,1-1-1v-.5a.5.5,0,0,1,.5-.5A2.5,2.5,0,0,0,15,7.5v-1a.5.5,0,0,1,.5-.5h1.379a2.516,2.516,0,0,0,1.767-.732l.377-.377A9.969,9.969,0,0,1,22,12Zm-19.951.963,3.158,3.158A2.978,2.978,0,0,0,7.329,17H10a1,1,0,0,1,1,1v3.949A10.016,10.016,0,0,1,2.049,12.963ZM13,21.949V18a3,3,0,0,0-3-3H7.329a1,1,0,0,1-.708-.293L2.163,10.249A9.978,9.978,0,0,1,17.456,3.63l-.224.224A.507.507,0,0,1,16.879,4H15.5A2.5,2.5,0,0,0,13,6.5v1a.5.5,0,0,1-.5.5A2.5,2.5,0,0,0,10,10.5V11a3,3,0,0,0,3,3h3a1,1,0,0,1,1,1v.962a2.516,2.516,0,0,0,.732,1.767l1.337,1.337A9.971,9.971,0,0,1,13,21.949Z"
      fill="#608ade">
    </path>
  </symbol>
  <symbol id="frontend" xmlns="http://www.w3.org/2000/svg" viewBox="0 0 24 24">
    <path
      d="m19 1h-14a5.006 5.006 0 0 0 -5 5v12a5.006 5.006 0 0 0 5 5h14a5.006 5.006 0 0 0 5-5v-12a5.006 5.006 0 0 0 -5-5zm-14 2h14a3 3 0 0 1 3 3v1h-20v-1a3 3 0 0 1 3-3zm14 18h-14a3 3 0 0 1 -3-3v-9h20v9a3 3 0 0 1 -3 3zm0-8a1 1 0 0 1 -1 1h-12a1 1 0 0 1 0-2h12a1 1 0 0 1 1 1zm-4 4a1 1 0 0 1 -1 1h-8a1 1 0 0 1 0-2h8a1 1 0 0 1 1 1zm-12-12a1 1 0 1 1 1 1 1 1 0 0 1 -1-1zm3 0a1 1 0 1 1 1 1 1 1 0 0 1 -1-1zm3 0a1 1 0 1 1 1 1 1 1 0 0 1 -1-1z"
      fill="#e88de0"></path>
  </symbol>
  <symbol xmlns="http://www.w3.org/2000/svg" id="management" viewBox="0 0 24 24">
    <path
      d="m13,9h-2c-1.103,0-2,.897-2,2v2c0,1.103.897,2,2,2h2c1.103,0,2-.897,2-2v-2c0-1.103-.897-2-2-2Zm0,4h-2v-2h2v2Zm0-12h-2c-1.103,0-2,.897-2,2v2c0,1.103.897,2,2,2h2c1.103,0,2-.897,2-2v-2c0-1.103-.897-2-2-2Zm0,4h-2v-2h2v2Zm0,12h-2c-1.103,0-2,.897-2,2v2c0,1.103.897,2,2,2h2c1.103,0,2-.897,2-2v-2c0-1.103-.897-2-2-2Zm0,4h-2v-2h2v2Zm10.866-10.613c-.186.321-.521.5-.867.5-.17,0-.342-.043-.499-.134l-.76-.439c-.706.795-1.66,1.365-2.74,1.585v1.101c0,.553-.447,1-1,1s-1-.447-1-1v-2c0-.552.447-1,1-1,1.654,0,3-1.346,3-3s-1.346-3-3-3c-.553,0-1-.448-1-1V1c0-.552.447-1,1-1s1,.448,1,1v1.101c1.08.22,2.035.79,2.74,1.585l.76-.439c.477-.276,1.089-.113,1.366.366.276.479.112,1.09-.366,1.366l-.757.437c.167.498.257,1.03.257,1.583s-.091,1.086-.257,1.583l.757.437c.479.276.643.888.366,1.366ZM7.414,18.586c.78.779.78,2.049,0,2.828l-1.793,1.793c-.195.195-.451.293-.707.293s-.512-.098-.707-.293c-.391-.391-.391-1.023,0-1.414l.793-.793h-1.5c-1.93,0-3.5-1.57-3.5-3.5v-3c0-1.93,1.57-3.5,3.5-3.5h2.5c.552,0,1,.448,1,1s-.448,1-1,1h-2.5c-.827,0-1.5.673-1.5,1.5v3c0,.827.673,1.5,1.5,1.5h1.5l-.793-.793c-.391-.391-.391-1.023,0-1.414s1.023-.391,1.414,0l1.793,1.793Z"
      fill="#57c08f">
    </path>
  </symbol>



</svg>